<?xml version="1.0" encoding="utf-8"?>
<!-- Generator: Adobe Illustrator 19.0.0, SVG Export Plug-In . SVG Version: 6.00 Build 0)  -->
<svg version="1.1" id="Layer_1" xmlns="http://www.w3.org/2000/svg" xmlns:xlink="http://www.w3.org/1999/xlink" x="0px" y="0px"
	 viewBox="-255 347 100 100" style="enable-background:new -255 347 100 100;" xml:space="preserve">
<style type="text/css">
	.st0{clip-path:url(#SVGID_2_);}
	.st1{fill:url(#SVGID_3_);}
	.st2{fill:url(#SVGID_4_);}
	.st3{fill:url(#SVGID_5_);}
	.st4{fill:url(#SVGID_6_);}
	.st5{fill:url(#SVGID_7_);}
	.st6{fill:url(#SVGID_8_);}
	.st7{fill:url(#SVGID_9_);}
	.st8{fill:url(#SVGID_10_);}
	.st9{fill:url(#SVGID_11_);}
	.st10{fill:url(#SVGID_12_);}
	.st11{fill:url(#SVGID_13_);}
	.st12{fill:url(#SVGID_14_);}
	.st13{fill:url(#SVGID_15_);}
	.st14{fill:url(#SVGID_16_);}
	.st15{fill:url(#SVGID_17_);}
	.st16{fill:url(#SVGID_18_);}
	.st17{fill:url(#SVGID_19_);}
	.st18{fill:url(#SVGID_20_);}
	.st19{fill:url(#SVGID_21_);}
	.st20{fill:#665B56;}
	.st21{fill:url(#SVGID_22_);}
	.st22{fill:url(#SVGID_23_);}
	.st23{fill:url(#SVGID_24_);}
	.st24{fill:url(#SVGID_25_);}
	.st25{fill:#C0A289;}
	.st26{fill:#918076;}
	.st27{fill:#8F857E;}
	.st28{fill:url(#SVGID_26_);}
	.st29{fill:#877A70;}
	.st30{fill:url(#SVGID_27_);}
	.st31{fill:url(#SVGID_28_);}
	.st32{fill:#777167;}
	.st33{fill:#B5AFA5;}
	.st34{fill:url(#SVGID_29_);}
	.st35{fill:#676561;}
	.st36{fill:url(#SVGID_30_);}
	.st37{fill:url(#SVGID_31_);}
	.st38{opacity:0.93;}
	.st39{fill:#070768;}
</style>
<g id="object">
	<g>
		<g>
			<defs>
				<rect id="SVGID_1_" x="-255" y="347" width="100" height="100"/>
			</defs>
			<clipPath id="SVGID_2_">
				<use xlink:href="#SVGID_1_"  style="overflow:visible;"/>
			</clipPath>
			<g class="st0">
				
					<linearGradient id="SVGID_3_" gradientUnits="userSpaceOnUse" x1="-101.6441" y1="404.4481" x2="-123.9982" y2="400.5065" gradientTransform="matrix(1 0 0 -1 0 796)">
					<stop  offset="0" style="stop-color:#E7E0D7"/>
					<stop  offset="0.3681" style="stop-color:#F6F4F2"/>
					<stop  offset="0.8132" style="stop-color:#D1BFAB"/>
				</linearGradient>
				<polygon class="st1" points="-102.5,337.3 -141.6,337.3 -153.6,453 -102.5,453 				"/>
				
					<linearGradient id="SVGID_4_" gradientUnits="userSpaceOnUse" x1="-110.6308" y1="352.4627" x2="-85.5923" y2="358.0748" gradientTransform="matrix(1 0 0 -1 0 796)">
					<stop  offset="0" style="stop-color:#9A0003"/>
					<stop  offset="0.5568" style="stop-color:#C40D16"/>
					<stop  offset="1" style="stop-color:#E91827"/>
				</linearGradient>
				<path class="st2" d="M-110.9,453h8.4v-20.7c-5.2-2.3-14.6,1.7-16.1,4.9L-110.9,453z"/>
				
					<linearGradient id="SVGID_5_" gradientUnits="userSpaceOnUse" x1="-102.4332" y1="397.018" x2="-121.79" y2="393.1467" gradientTransform="matrix(1 0 0 -1 0 796)">
					<stop  offset="0.3077" style="stop-color:#E70A22"/>
					<stop  offset="0.5601" style="stop-color:#B90513"/>
					<stop  offset="0.7933" style="stop-color:#960107"/>
					<stop  offset="0.9176" style="stop-color:#880002"/>
				</linearGradient>
				<path class="st3" d="M-129.8,395c0,0,2,13.2,6.8,22c3.4-4.6,12.6-8.7,20.6-6.3v-22.4C-115,382.9-129.8,395-129.8,395z"/>
				
					<linearGradient id="SVGID_6_" gradientUnits="userSpaceOnUse" x1="-103.1364" y1="439.2536" x2="-146.6718" y2="432.4608" gradientTransform="matrix(1 0 0 -1 0 796)">
					<stop  offset="0.1758" style="stop-color:#E70A22"/>
					<stop  offset="0.2283" style="stop-color:#D1081B"/>
					<stop  offset="0.3185" style="stop-color:#B10410"/>
					<stop  offset="0.4058" style="stop-color:#9A0208"/>
					<stop  offset="0.4882" style="stop-color:#8D0004"/>
					<stop  offset="0.5604" style="stop-color:#880002"/>
					<stop  offset="0.6545" style="stop-color:#8E0005"/>
					<stop  offset="0.7776" style="stop-color:#9E000F"/>
					<stop  offset="0.9162" style="stop-color:#B9001F"/>
					<stop  offset="1" style="stop-color:#CD002B"/>
				</linearGradient>
				<path class="st4" d="M-142.1,354.7c0,0,8,19.8,8.4,19.8c2.3,0.5,17.6-11.8,31.2-6.5v-21.5C-123.8,342.1-141.4,355.1-142.1,354.7
					z"/>
				
					<linearGradient id="SVGID_7_" gradientUnits="userSpaceOnUse" x1="-181.2176" y1="405.0888" x2="-127.5689" y2="420.4723" gradientTransform="matrix(1 0 0 -1 0 796)">
					<stop  offset="0" style="stop-color:#DCD4C7"/>
					<stop  offset="0.4505" style="stop-color:#CEBEAA"/>
					<stop  offset="0.5857" style="stop-color:#DFD5C8"/>
					<stop  offset="0.8022" style="stop-color:#FFFFFF"/>
					<stop  offset="0.8695" style="stop-color:#FEFDFD"/>
					<stop  offset="0.9073" style="stop-color:#F9F7F4"/>
					<stop  offset="0.9377" style="stop-color:#F1ECE7"/>
					<stop  offset="0.9643" style="stop-color:#E6DDD3"/>
					<stop  offset="0.9881" style="stop-color:#D7CABA"/>
					<stop  offset="1" style="stop-color:#CEBEAA"/>
				</linearGradient>
				<polygon class="st5" points="-105,453 -138.9,337.3 -287,337.3 -188.4,453 				"/>
				
					<linearGradient id="SVGID_8_" gradientUnits="userSpaceOnUse" x1="-198.4068" y1="436.5365" x2="-139.4135" y2="453.1756" gradientTransform="matrix(1 0 0 -1 0 796)">
					<stop  offset="0" style="stop-color:#A8001A"/>
					<stop  offset="0.4835" style="stop-color:#A00025"/>
					<stop  offset="0.5527" style="stop-color:#A80022"/>
					<stop  offset="0.6611" style="stop-color:#BE001B"/>
					<stop  offset="0.7857" style="stop-color:#E00110"/>
					<stop  offset="0.8859" style="stop-color:#DE0111"/>
					<stop  offset="0.9317" style="stop-color:#D60115"/>
					<stop  offset="0.9662" style="stop-color:#CA001C"/>
					<stop  offset="0.9952" style="stop-color:#B80026"/>
					<stop  offset="1" style="stop-color:#B40028"/>
				</linearGradient>
				<path class="st6" d="M-131.4,361.9l-5.7-19.4c-6.9-5.5-14-5.7-27,0.8c-24.7,12.3-52.8,8.9-69.2,7.1c-11.1-1.3-15.5,7.2-26.7,5.1
					l20.5,15.8c3.5,1.9,4.3-2.8,4.3-2.8s-2.3-0.8,16.9,1.9c44.2,6.3,57.4-9.3,70.8-11.8C-142.4,357.6-137.1,356.2-131.4,361.9z"/>
				
					<linearGradient id="SVGID_9_" gradientUnits="userSpaceOnUse" x1="-185.9894" y1="398.4341" x2="-125.2312" y2="412.7747" gradientTransform="matrix(1 0 0 -1 0 796)">
					<stop  offset="0" style="stop-color:#A8001A"/>
					<stop  offset="0.4835" style="stop-color:#A00025"/>
					<stop  offset="0.5527" style="stop-color:#A80022"/>
					<stop  offset="0.6611" style="stop-color:#BE001B"/>
					<stop  offset="0.7857" style="stop-color:#E00110"/>
					<stop  offset="0.8731" style="stop-color:#DE0111"/>
					<stop  offset="0.913" style="stop-color:#D60115"/>
					<stop  offset="0.9431" style="stop-color:#CA001C"/>
					<stop  offset="0.9683" style="stop-color:#B80026"/>
					<stop  offset="0.9725" style="stop-color:#B40028"/>
				</linearGradient>
				<path class="st7" d="M-121.2,400.8c0.3,0.3,0.9,1,1.2,1.4l-6.6-22.6c-8.3-5.6-14.9-3-18.7-1.5c-12.9,5.2-29.4,11.5-43.7,12
					c-10.1,0.3-37-3.3-37-3.3s-8.3,8.3,13.9,25.4c18.4,4,54.4-5.1,71.4-12.8C-132.9,395.8-125.4,396.4-121.2,400.8z"/>
				
					<linearGradient id="SVGID_10_" gradientUnits="userSpaceOnUse" x1="-151.6345" y1="361.5622" x2="-109.9782" y2="374.1516" gradientTransform="matrix(1 0 0 -1 0 796)">
					<stop  offset="0" style="stop-color:#A8001A"/>
					<stop  offset="0.4835" style="stop-color:#A00025"/>
					<stop  offset="0.5439" style="stop-color:#A80022"/>
					<stop  offset="0.6385" style="stop-color:#BE001B"/>
					<stop  offset="0.7473" style="stop-color:#E00110"/>
					<stop  offset="0.8166" style="stop-color:#DE0111"/>
					<stop  offset="0.8483" style="stop-color:#D60115"/>
					<stop  offset="0.8722" style="stop-color:#CA001C"/>
					<stop  offset="0.8923" style="stop-color:#B80026"/>
					<stop  offset="0.8956" style="stop-color:#B40028"/>
				</linearGradient>
				<path class="st8" d="M-146,448.1c5.1-0.8,16.5-9,23.9-9.8c5.7-0.6,9.6,0.5,13.4,2.3l-6.2-21.1c-7-4.7-15.6-2-22.9,1.3
					c-21.1,9.4-59.5,12.8-68.1,10.9l11.7,12.6l4.4,4.9l1.3,1.4C-179.1,453.2-155.3,449.6-146,448.1z"/>
				
					<linearGradient id="SVGID_11_" gradientUnits="userSpaceOnUse" x1="-214.6117" y1="388.5723" x2="-184.2883" y2="413.1277" gradientTransform="matrix(1 0 0 -1 0 796)">
					<stop  offset="0.3956" style="stop-color:#D1BFAB"/>
					<stop  offset="0.8352" style="stop-color:#F6F4F2"/>
					<stop  offset="0.9945" style="stop-color:#F1EEE8"/>
				</linearGradient>
				<polygon class="st9" points="-127.5,453 -228,337.3 -271.4,337.3 -174,453 				"/>
				
					<linearGradient id="SVGID_12_" gradientUnits="userSpaceOnUse" x1="-214.6117" y1="388.5723" x2="-184.2883" y2="413.1277" gradientTransform="matrix(1 0 0 -1 0 796)">
					<stop  offset="0" style="stop-color:#1A1A1A"/>
					<stop  offset="0.7212" style="stop-color:#F6F4F2"/>
					<stop  offset="0.9945" style="stop-color:#F1EEE8"/>
				</linearGradient>
				<polygon class="st10" points="-127.5,453 -228,337.3 -271.4,337.3 -174,453 				"/>
				
					<linearGradient id="SVGID_13_" gradientUnits="userSpaceOnUse" x1="-214.8633" y1="415.1678" x2="-199.8009" y2="427.365" gradientTransform="matrix(1 0 0 -1 0 796)">
					<stop  offset="0.544" style="stop-color:#D1BFAB"/>
					<stop  offset="0.8022" style="stop-color:#F6F4F2"/>
				</linearGradient>
				<polygon class="st11" points="-208,360.3 -224.3,361.7 -207.8,389.5 -186.7,384.8 				"/>
				
					<linearGradient id="SVGID_14_" gradientUnits="userSpaceOnUse" x1="-305.8203" y1="345.013" x2="-222.7765" y2="412.2607" gradientTransform="matrix(1 0 0 -1 0 796)">
					<stop  offset="0" style="stop-color:#9C8B7F"/>
					<stop  offset="0.2143" style="stop-color:#9C8B7F"/>
					<stop  offset="0.2649" style="stop-color:#AFA096"/>
					<stop  offset="0.3686" style="stop-color:#D0C7BE"/>
					<stop  offset="0.4506" style="stop-color:#E5DED8"/>
					<stop  offset="0.5" style="stop-color:#EDE7E1"/>
					<stop  offset="0.7473" style="stop-color:#DACFC1"/>
					<stop  offset="0.7808" style="stop-color:#E6DFD6"/>
					<stop  offset="0.8281" style="stop-color:#F4F1ED"/>
					<stop  offset="0.8728" style="stop-color:#FCFBFA"/>
					<stop  offset="0.9121" style="stop-color:#FFFFFF"/>
					<stop  offset="0.9556" style="stop-color:#FEFEFD"/>
					<stop  offset="0.9713" style="stop-color:#FAF8F6"/>
					<stop  offset="0.9825" style="stop-color:#F3EFEB"/>
					<stop  offset="0.9914" style="stop-color:#E9E2DA"/>
					<stop  offset="0.9991" style="stop-color:#DCD1C4"/>
					<stop  offset="1" style="stop-color:#DACFC1"/>
				</linearGradient>
				<polygon class="st12" points="-167.5,452 -270.3,337.3 -305,337.3 -305,452 				"/>
				
					<linearGradient id="SVGID_15_" gradientUnits="userSpaceOnUse" x1="-214.8023" y1="438.0789" x2="-211.6668" y2="439.3333" gradientTransform="matrix(1 0 0 -1 0 796)">
					<stop  offset="0" style="stop-color:#9A0003"/>
					<stop  offset="0.5568" style="stop-color:#C40D16"/>
					<stop  offset="1" style="stop-color:#E91827"/>
				</linearGradient>
				<path class="st13" d="M-216.3,350.7c0.8,4.9,2,12.2,2.6,14c0,0,2.7-3.2,7.5-2.4L-216.3,350.7z"/>
				
					<linearGradient id="SVGID_16_" gradientUnits="userSpaceOnUse" x1="-188.3725" y1="397.731" x2="-183.7739" y2="401.4548" gradientTransform="matrix(1 0 0 -1 0 796)">
					<stop  offset="3.296700e-002" style="stop-color:#8A0003"/>
					<stop  offset="0.4885" style="stop-color:#B50B13"/>
					<stop  offset="1" style="stop-color:#E91827"/>
				</linearGradient>
				<path class="st14" d="M-187.4,384c-6.6-0.3-12.8,3.6-12.8,3.6s4.2,12.1,8.2,20.5c5.1-1.7,5.7-2.2,11.8-4c4.4-1.3,7.4-0.8,10-0.3
					L-187.4,384z"/>
				
					<linearGradient id="SVGID_17_" gradientUnits="userSpaceOnUse" x1="-177.8619" y1="348.3748" x2="-150.0244" y2="370.9172" gradientTransform="matrix(1 0 0 -1 0 796)">
					<stop  offset="0" style="stop-color:#9E0002"/>
					<stop  offset="0.5604" style="stop-color:#880002"/>
					<stop  offset="0.5892" style="stop-color:#910105"/>
					<stop  offset="0.7932" style="stop-color:#CF071A"/>
					<stop  offset="0.8901" style="stop-color:#E70A22"/>
					<stop  offset="0.9093" style="stop-color:#DF0725"/>
					<stop  offset="0.9575" style="stop-color:#D20229"/>
					<stop  offset="1" style="stop-color:#CD002B"/>
				</linearGradient>
				<path class="st15" d="M-133.8,445.2l-19.7-22.7c-3.4-0.6-1-3.4-25.4,4.6c-3.6,1.2-14.2,0.9-15.3,0.5l18.4,22.2
					c7.1,0.9,13.6-1.4,17.8-3C-144,441.8-137.2,443.8-133.8,445.2z"/>
				
					<linearGradient id="SVGID_18_" gradientUnits="userSpaceOnUse" x1="-305.8866" y1="344.0949" x2="-222.2992" y2="411.7827" gradientTransform="matrix(1 0 0 -1 0 796)">
					<stop  offset="0" style="stop-color:#9C8B7F"/>
					<stop  offset="0.2143" style="stop-color:#9C8B7F"/>
					<stop  offset="0.2649" style="stop-color:#AFA096"/>
					<stop  offset="0.3686" style="stop-color:#D0C7BE"/>
					<stop  offset="0.4506" style="stop-color:#E5DED8"/>
					<stop  offset="0.5" style="stop-color:#EDE7E1"/>
					<stop  offset="0.7473" style="stop-color:#DACFC1"/>
					<stop  offset="0.7808" style="stop-color:#E6DFD6"/>
					<stop  offset="0.8281" style="stop-color:#F4F1ED"/>
					<stop  offset="0.8728" style="stop-color:#FCFBFA"/>
					<stop  offset="0.9121" style="stop-color:#FFFFFF"/>
					<stop  offset="0.9556" style="stop-color:#FEFEFD"/>
					<stop  offset="0.9713" style="stop-color:#FAF8F6"/>
					<stop  offset="0.9825" style="stop-color:#F3EFEB"/>
					<stop  offset="0.9914" style="stop-color:#E9E2DA"/>
					<stop  offset="0.9991" style="stop-color:#DCD1C4"/>
					<stop  offset="1" style="stop-color:#DACFC1"/>
				</linearGradient>
				<polygon class="st16" points="-166.6,453 -305,453 -305,337.3 -270.3,337.3 				"/>
				
					<linearGradient id="SVGID_19_" gradientUnits="userSpaceOnUse" x1="-226.4981" y1="427.1456" x2="-211.9046" y2="438.9632" gradientTransform="matrix(1 0 0 -1 0 796)">
					<stop  offset="0.2527" style="stop-color:#00050D"/>
					<stop  offset="0.5989" style="stop-color:#161438"/>
					<stop  offset="0.9945" style="stop-color:#2F528D"/>
				</linearGradient>
				<path class="st17" d="M-271.4,337.3l34.4,40.9c8.5,9.3,17.5,19.6,26.5,30.3c11.5,3.3,19.9-0.8,19.9-0.8s-7.1-16.1-9.3-21.8
					c-2.2-5.7-6.4-13.2-7.9-17.6c-1-3-1.7-7.5-2.3-10.4l-17.9-20.6H-271.4z"/>
				
					<linearGradient id="SVGID_20_" gradientUnits="userSpaceOnUse" x1="-226.4981" y1="427.1456" x2="-211.9046" y2="438.9632" gradientTransform="matrix(1 0 0 -1 0 796)">
					<stop  offset="0.2527" style="stop-color:#00050D"/>
					<stop  offset="0.5989" style="stop-color:#161438"/>
					<stop  offset="0.9945" style="stop-color:#2F528D"/>
				</linearGradient>
				<path class="st18" d="M-271.4,337.3l34.4,40.9c8.5,9.3,17.5,19.6,26.5,30.3c11.5,3.3,19.9-0.8,19.9-0.8s-7.1-16.1-9.3-21.8
					c-2.2-5.7-6.4-13.2-7.9-17.6c-1-3-1.7-7.5-2.3-10.4l-17.9-20.6H-271.4z"/>
				
					<linearGradient id="SVGID_21_" gradientUnits="userSpaceOnUse" x1="-231.5739" y1="412.85" x2="-220.0179" y2="412.85" gradientTransform="matrix(1 0 0 -1 0 796)">
					<stop  offset="0.2143" style="stop-color:#534944"/>
					<stop  offset="0.4037" style="stop-color:#574D48"/>
					<stop  offset="0.6106" style="stop-color:#655952"/>
					<stop  offset="0.825" style="stop-color:#7A6C64"/>
					<stop  offset="0.9945" style="stop-color:#918076"/>
				</linearGradient>
				<polygon class="st19" points="-227.4,377.7 -228.1,381.6 -231.6,380.8 -227.2,386.2 -225,385.7 -220.9,388.6 -223.1,384.7 
					-220,381.8 -225.1,382 				"/>
				<polygon class="st20" points="-244.7,360.9 -248.9,362 -251.2,359.1 				"/>
				
					<linearGradient id="SVGID_22_" gradientUnits="userSpaceOnUse" x1="-305.8866" y1="344.0949" x2="-222.2992" y2="411.7827" gradientTransform="matrix(1 0 0 -1 0 796)">
					<stop  offset="0.3152" style="stop-color:#1A1A1A"/>
					<stop  offset="0.9091" style="stop-color:#F6F4F2"/>
				</linearGradient>
				<polygon class="st21" points="-166.6,453 -305,453 -305,337.3 -270.3,337.3 				"/>
				
					<linearGradient id="SVGID_23_" gradientUnits="userSpaceOnUse" x1="-278.0912" y1="408.1946" x2="-246.6256" y2="433.675" gradientTransform="matrix(1 0 0 -1 0 796)">
					<stop  offset="0.2527" style="stop-color:#0C1348"/>
					<stop  offset="0.5989" style="stop-color:#0A0C25"/>
					<stop  offset="0.9066" style="stop-color:#1C3579"/>
					<stop  offset="1" style="stop-color:#201E49"/>
				</linearGradient>
				<path class="st22" d="M-290.8,398.9c7-0.6,17.2,5.2,20.2,7c7,4.3,19,4.3,33.1,0c5.7-1.7,13-4.6,19.5-4.5
					c2.5,0.1,5.6,1.6,8.2,3.3l-59.7-67.4l-35.5,0.1v68.7C-305,406.1-300.7,399.7-290.8,398.9z"/>
				<g>
					
						<linearGradient id="SVGID_24_" gradientUnits="userSpaceOnUse" x1="-287.1263" y1="424.1708" x2="-312.3763" y2="416.175" gradientTransform="matrix(1 0 0 -1 0 796)">
						<stop  offset="1.098900e-002" style="stop-color:#0C1348"/>
						<stop  offset="8.866026e-002" style="stop-color:#10133D"/>
						<stop  offset="0.2037" style="stop-color:#141433"/>
						<stop  offset="0.3571" style="stop-color:#151430"/>
						<stop  offset="0.6868" style="stop-color:#1C3579"/>
						<stop  offset="0.7455" style="stop-color:#1A3171"/>
						<stop  offset="0.8357" style="stop-color:#16275C"/>
						<stop  offset="0.9453" style="stop-color:#0E1639"/>
						<stop  offset="1" style="stop-color:#0A0C25"/>
					</linearGradient>
					<path class="st23" d="M-305,337.4v68.7c0,0,2.6-3.8,12.5-4.6c7-0.6,19.4,3.6,22.8,4.9L-305,337.4z"/>
				</g>
				
					<linearGradient id="SVGID_25_" gradientUnits="userSpaceOnUse" x1="-291.0574" y1="323.1441" x2="-199.2553" y2="387.4246" gradientTransform="matrix(1 0 0 -1 0 796)">
					<stop  offset="9.890110e-002" style="stop-color:#4F0001"/>
					<stop  offset="0.3077" style="stop-color:#C6010B"/>
					<stop  offset="0.4176" style="stop-color:#880002"/>
					<stop  offset="0.8132" style="stop-color:#880002"/>
					<stop  offset="0.8716" style="stop-color:#AB0104"/>
					<stop  offset="0.9243" style="stop-color:#C50105"/>
					<stop  offset="0.956" style="stop-color:#CE0105"/>
				</linearGradient>
				<path class="st24" d="M-258.5,446.6c7.4,2.3,16.4,4.5,21.4,4.3c14.6-0.6,33.8-9.5,44-10.3c5.4-0.4,14.6,2.3,19.2,4.3l-3.9-4.4
					l-16.1-18c-5.3-2.2-9.5-2.7-14.2-1.9c-7.8,1.3-27.6,8.9-37.1,8.1c-10.4-0.9-33-8.3-38.1-8.3c-12,0-18.8,7.4-21.5,8V453h4.5
					C-279.5,439.2-265.2,444.5-258.5,446.6z"/>
				<polygon class="st25" points="-210.5,402.7 -210.8,398.7 -214.9,395.8 -210.2,395.4 -209.8,390.7 -207,395.1 -202.7,394.1 
					-205.2,397.9 -202.7,402.4 -207.5,400 				"/>
				<polygon class="st26" points="-216.5,377.7 -216.9,372.4 -221.1,370.8 -218,368.4 -219.1,364 -216,368.1 -213.3,367 -214,371 
					-210.7,374.8 -214,373.5 				"/>
				<path class="st27" d="M-232.3,365.5c0,0,2-2.3,2.6-3.6c3.9,1.2,3.9,1.2,3.9,1.2l-2.8-3.6v-4.3l-1.8,1l-2.6-3.4l0.4,4.8l-3.4,1.6
					l3.8,1.5L-232.3,365.5z"/>
				
					<linearGradient id="SVGID_26_" gradientUnits="userSpaceOnUse" x1="-230.2411" y1="451.95" x2="-219.8411" y2="451.95" gradientTransform="matrix(1 0 0 -1 0 796)">
					<stop  offset="0" style="stop-color:#9D9F90"/>
					<stop  offset="1" style="stop-color:#F0F3EC"/>
				</linearGradient>
				<path class="st28" d="M-226.8,338.7l0.4,3.6l-3.8,1.7l3.6,1.2c0,0,0.3,1.1,0.8,4.2c0.2-1.2,1.8-3.6,1.8-3.6l4.2,0.9
					L-226.8,338.7z"/>
				<path class="st27" d="M-238.2,337.3h-1.2c0.1,0.5,0.2,1.2,0.3,2C-239,338.7-238.6,338-238.2,337.3z"/>
				<path class="st29" d="M-247.7,355.2c0,0,2.9-1.6,3.2-2.2c3.1,1,4.7,1.3,4.7,1.3l-2.2-3.5l1.8-4.1l-3.4,1.5l-2-3.5l-0.9,4.3
					l-4,0.8l3.4,1.9L-247.7,355.2z"/>
				<path class="st29" d="M-260.3,337.3l-0.2,0.7l-3.9,0.7l3.4,1.9v3.5c0,0,2.3-1.6,2.6-2.2c3.1,1,4.7,1.3,4.7,1.3l-2.3-3.4l1.1-2.5
					H-260.3z"/>
				<g>
					
						<linearGradient id="SVGID_27_" gradientUnits="userSpaceOnUse" x1="-238.0928" y1="400.5985" x2="-229.2676" y2="407.435" gradientTransform="matrix(1 0 0 -1 0 796)">
						<stop  offset="0" style="stop-color:#676561"/>
						<stop  offset="0.5934" style="stop-color:#FEFEFE"/>
					</linearGradient>
					<polygon class="st30" points="-237.2,392.1 -237.2,387.9 -234,390.8 -229.9,390.2 -232,392.9 -229.3,395.4 -233.7,395 
						-236.2,398.7 -236.8,394.8 -241,394.1 					"/>
					
						<linearGradient id="SVGID_28_" gradientUnits="userSpaceOnUse" x1="-250.8788" y1="421.1724" x2="-241.3461" y2="427.6134" gradientTransform="matrix(1 0 0 -1 0 796)">
						<stop  offset="0.2253" style="stop-color:#B2A598"/>
						<stop  offset="0.26" style="stop-color:#C5BBB1"/>
						<stop  offset="0.3076" style="stop-color:#DAD3CD"/>
						<stop  offset="0.3592" style="stop-color:#EAE6E3"/>
						<stop  offset="0.4159" style="stop-color:#F5F4F2"/>
						<stop  offset="0.4815" style="stop-color:#FCFCFB"/>
						<stop  offset="0.5769" style="stop-color:#FEFEFE"/>
						<stop  offset="0.8681" style="stop-color:#B2A598"/>
					</linearGradient>
					<polygon class="st31" points="-241.4,369.1 -245.1,369.6 -248.3,366.7 -248.3,371 -252.1,372.9 -247.9,373.6 -247.4,377.5 
						-244.9,373.9 -240.5,374.2 -243.2,371.7 -241.2,369.3 					"/>
					<polygon class="st32" points="-299.7,372.8 -298.7,369.1 -296.6,372.7 -292,374 -295.2,375.1 -293.8,378.8 -297.7,376.6 
						-300.9,379.6 -300.3,375.7 -304,374.2 					"/>
					<polygon class="st32" points="-303.5,351.6 -305,349.4 -305,356.2 -304.4,355.5 -300.4,357.5 -302,353.9 -298.9,352.5 					"/>
					<polygon class="st33" points="-256.5,394.6 -261.3,394.7 -264.5,391.5 -264.5,395 -269.1,395.5 -264.1,397.8 -264.2,401.9 
						-261.2,399.2 -257.2,401.1 -259.2,397 					"/>
					
						<linearGradient id="SVGID_29_" gradientUnits="userSpaceOnUse" x1="-308.6624" y1="396.2375" x2="-302.7978" y2="402.1023" gradientTransform="matrix(1 0 0 -1 0 796)">
						<stop  offset="0.2143" style="stop-color:#534944"/>
						<stop  offset="0.4037" style="stop-color:#574D48"/>
						<stop  offset="0.6106" style="stop-color:#655952"/>
						<stop  offset="0.825" style="stop-color:#7A6C64"/>
						<stop  offset="0.9945" style="stop-color:#918076"/>
					</linearGradient>
					<polygon class="st34" points="-305,390.8 -305,397.4 -302.3,398.7 -304.7,393.9 -301.3,390.8 					"/>
					<polygon class="st32" points="-281.1,390.9 -285.4,389 -288.3,384.8 -288.7,388.4 -293.1,387.9 -289.1,390.6 -289.4,394.5 
						-286.5,392.5 -282.4,395.6 -283.9,391.9 					"/>
					<polygon class="st33" points="-284.2,365 -288.2,363 -291.1,358.8 -291.5,362.3 -295.9,361.8 -291.9,364.6 -292.2,368.4 
						-289.3,366.5 -285.2,369.5 -286.7,365.8 					"/>
					<polygon class="st32" points="-301.2,338.5 -301,342.3 -298.3,340 -293.9,342.6 -295.8,339.1 -293.5,338 -295.1,337.4 
						-303.2,337.4 					"/>
					<polygon class="st32" points="-245.9,388.6 -248.4,385.2 -246,382.5 -250,383.4 -253.6,379.5 -253.1,384.2 -257.1,385.3 
						-253,386.8 -252.6,390.6 -250.1,387.2 					"/>
					<polygon class="st35" points="-229.9,382.1 -233,378.5 -235.8,379 -232,380.8 -232,384.4 					"/>
					<polygon class="st33" points="-270.5,381.5 -274.6,379.2 -277.2,374.8 -277.9,378.3 -281.9,377.4 -278.3,380.8 -278.6,384.6 
						-275.8,382.2 -272.3,385.8 -273.5,381.9 					"/>
					<polygon class="st32" points="-276.2,355.1 -280.1,353 -282.7,348.7 -283.3,352.1 -287.1,351.2 -283.7,354.5 -284,358.1 
						-281.3,355.8 -277.9,359.3 -279.1,355.6 					"/>
					<polygon class="st32" points="-263.2,375.6 -264.6,371.8 -261.5,370.6 -266.1,369.5 -269,365.6 -269.3,369.1 -273.6,368.3 
						-269.9,371.5 -269.8,375.4 -267.2,372.8 					"/>
					
						<linearGradient id="SVGID_30_" gradientUnits="userSpaceOnUse" x1="-281.9002" y1="453.1593" x2="-272.5751" y2="458.0857" gradientTransform="matrix(1 0 0 -1 0 796)">
						<stop  offset="0" style="stop-color:#676561"/>
						<stop  offset="0.8462" style="stop-color:#FEFEFE"/>
					</linearGradient>
					<polygon class="st36" points="-283.8,337.3 -280.2,340.6 -280.3,344.6 -277.5,342.1 -273.6,345 -274.9,341.1 -271.8,340.1 
						-276.4,338.8 -277.4,337.3 					"/>
					
						<linearGradient id="SVGID_31_" gradientUnits="userSpaceOnUse" x1="-265.1454" y1="434.8637" x2="-255.4734" y2="442.6013" gradientTransform="matrix(1 0 0 -1 0 796)">
						<stop  offset="0" style="stop-color:#676561"/>
						<stop  offset="0.5934" style="stop-color:#FEFEFE"/>
					</linearGradient>
					<path class="st37" d="M-256.5,356.6c-1.5,0.2-2.9,0.1-4.2,0.1l-2.8-4l-0.1,3.8c-2.7-0.3-4.4-0.9-4.4-0.9l3.6,3.2l-0.3,4.3
						l3-2.9l4.5,2.4l-1.9-3.6C-259.1,359-258,358.6-256.5,356.6z"/>
					<polygon class="st35" points="-263.8,343.8 -263.9,346.4 -262.6,345.1 					"/>
				</g>
			</g>
		</g>
	</g>
</g>
<g id="License">
	<g class="st38">
		<g>
			<path class="st39" d="M-215.9,445L-215.9,445c0,0-0.1,0-0.1,0.1c0,0-0.1,0-0.1,0.1h-0.1c-0.1,0-0.1,0-0.2,0s-0.1-0.1-0.1-0.1
				s-0.1-0.1-0.1-0.2s0-0.1,0-0.2c0-0.2,0-0.3,0.1-0.4c0.1-0.1,0.2-0.1,0.3-0.1s0.1,0,0.2,0s0.1,0.1,0.1,0.1v-0.4c0-0.1,0-0.1,0-0.1
				h0.1h0.1v0.1v1.1v0.1h-0.1h-0.1C-215.9,445.1-215.9,445-215.9,445z M-216.5,444.6c0,0.1,0,0.1,0,0.2l0.1,0.1h0.1h0.1l0.1-0.1
				c0,0,0-0.1,0-0.2s0-0.1,0-0.2l-0.1-0.1h-0.1h-0.1l-0.1,0.1C-216.4,444.5-216.5,444.5-216.5,444.6z"/>
			<path class="st39" d="M-214.7,444.7h-0.5c0,0.1,0,0.1,0,0.2l0.1,0.1h0.1h0.1c0,0,0,0,0.1,0c0,0,0,0,0.1,0c0,0,0,0,0.1-0.1
				c0,0,0,0,0.1,0c0,0,0,0,0.1,0c0,0,0,0,0,0.1v0.1c0,0,0,0.1-0.1,0.1l-0.1,0.1c-0.1,0-0.1,0-0.2,0c-0.2,0-0.3,0-0.4-0.1
				s-0.1-0.2-0.1-0.4c0-0.1,0-0.1,0-0.2c0-0.1,0.1-0.1,0.1-0.2c0,0,0.1-0.1,0.2-0.1c0.1,0,0.1,0,0.2,0c0.1,0,0.2,0,0.3,0.1
				c0.1,0,0.1,0.1,0.2,0.2c0,0.1,0.1,0.1,0.1,0.2s0,0.1-0.1,0.1C-214.6,444.6-214.7,444.7-214.7,444.7z M-215.2,444.5h0.5
				c0-0.1,0-0.2-0.1-0.2c0,0-0.1-0.1-0.2-0.1s-0.1,0-0.2,0.1C-215.2,444.4-215.2,444.4-215.2,444.5z"/>
			<path class="st39" d="M-213.5,444.8c0,0.1,0,0.1-0.1,0.2c0,0.1-0.1,0.1-0.2,0.1c-0.1,0-0.1,0-0.2,0s-0.2,0-0.2,0
				c-0.1,0-0.1-0.1-0.1-0.1v-0.1v-0.1c0,0,0,0,0.1,0c0,0,0,0,0.1,0c0,0,0,0,0,0.1l0.1,0.1c0,0,0.1,0,0.2,0c0.1,0,0.1,0,0.1,0
				s0,0,0-0.1c0,0,0-0.1-0.1-0.1c0,0-0.1,0-0.2-0.1c-0.1,0-0.2,0-0.2-0.1c-0.1,0-0.1-0.1-0.1-0.1v-0.1c0-0.1,0-0.1,0-0.1l0.1-0.1
				c0.1,0,0.1,0,0.2,0c0.1,0,0.1,0,0.2,0c0.1,0,0.1,0,0.1,0.1c0,0,0.1,0,0.1,0.1v0.1v0.1c0,0,0,0-0.1,0c0,0,0,0-0.1,0
				c0,0,0,0-0.1-0.1c0,0,0,0-0.1-0.1c-0.1-0.1-0.1,0-0.1,0h-0.1c0,0,0,0,0,0.1c0,0,0,0,0,0.1h0.1c0,0,0.1,0,0.2,0
				c0.1,0,0.1,0,0.2,0.1c0.1,0,0.1,0.1,0.1,0.1C-213.5,444.7-213.5,444.7-213.5,444.8z"/>
			<path class="st39" d="M-213.1,444C-213.2,444-213.2,443.9-213.1,444c-0.1-0.1-0.1-0.1-0.1-0.1v-0.1h0.1h0.1v0.1
				C-213,443.9-213,443.9-213.1,444C-213.1,443.9-213.1,444-213.1,444z M-213,444.2v0.8c0,0.1,0,0.1,0,0.1h-0.1h-0.1V445v-0.7
				c0-0.1,0-0.1,0-0.1h0.1H-213C-213,444.1-213,444.2-213,444.2z"/>
			<path class="st39" d="M-211.8,444.3v0.7c0,0.1,0,0.2,0,0.2c0,0.1,0,0.1-0.1,0.2c0,0-0.1,0.1-0.2,0.1c-0.1,0-0.1,0-0.2,0
				c-0.1,0-0.2,0-0.2,0c-0.1,0-0.1-0.1-0.2-0.1l-0.1-0.1v-0.1c0,0,0,0,0.1,0c0,0,0.1,0,0.1,0.1c0,0,0,0,0,0.1l0,0c0,0,0,0,0.1,0h0.1
				c0.1,0,0.1,0,0.2,0c0,0,0.1,0,0.1-0.1v-0.1c0,0,0-0.1,0-0.2c0,0.1-0.1,0.1-0.1,0.1c-0.1,0-0.1,0-0.2,0c-0.1,0-0.2,0-0.2-0.1
				c-0.1,0-0.1-0.1-0.1-0.2c0-0.1-0.1-0.2-0.1-0.3s0-0.1,0-0.2c0-0.1,0.1-0.1,0.1-0.2l0.1-0.1c0.1,0,0.1,0,0.2,0c0.1,0,0.1,0,0.2,0
				c0.1,0,0.1,0.1,0.1,0.1l0,0V444h0.1h0.1C-211.8,444.2-211.8,444.2-211.8,444.3z M-212.5,444.6c0,0.1,0,0.2,0.1,0.2
				c0,0.1,0.1,0.1,0.2,0.1h0.1l0.1-0.1c0,0,0-0.1,0-0.2s0-0.2-0.1-0.2c0-0.1-0.1-0.1-0.2-0.1c-0.1,0-0.1,0-0.2,0.1
				C-212.5,444.4-212.5,444.5-212.5,444.6z"/>
			<path class="st39" d="M-211.3,444.2L-211.3,444.2l0.1-0.1c0.1,0,0.1,0,0.2,0s0.1,0,0.2,0c0.1,0,0.1,0.1,0.1,0.1v0.1v0.1v0.6
				c0,0.1,0,0.1,0,0.1h-0.1h-0.1V445v-0.4c0-0.1,0-0.1,0-0.2l-0.1-0.1h-0.1l-0.1,0.1c0,0,0,0.1,0,0.2v0.4c0,0.1,0,0.1,0,0.1h-0.1
				h-0.1V445L-211.3,444.2L-211.3,444.2L-211.3,444.2c0,0,0,0,0.1,0C-211.3,444.1-211.3,444.1-211.3,444.2L-211.3,444.2z"/>
			<path class="st39" d="M-209.6,444.7h-0.5c0,0.1,0,0.1,0,0.2l0.1,0.1h0.1h0.1c0,0,0,0,0.1,0c0,0,0,0,0.1,0c0,0,0,0,0.1-0.1
				c0,0,0,0,0.1,0c0,0,0,0,0.1,0c0,0,0,0,0,0.1v0.1c0,0,0,0.1-0.1,0.1l-0.1,0.1c0,0-0.1,0-0.2,0c-0.2,0-0.3,0-0.4-0.1
				s-0.1-0.2-0.1-0.4c0-0.1,0-0.1,0-0.2c0-0.1,0.1-0.1,0.1-0.2c0,0,0.1-0.1,0.2-0.1c0.1,0,0.1,0,0.2,0s0.2,0,0.3,0.1
				c0.1,0,0.1,0.1,0.2,0.2c0,0.1,0.1,0.1,0.1,0.2s0,0.1-0.1,0.1C-209.5,444.6-209.6,444.7-209.6,444.7z M-210.1,444.5h0.5
				c0-0.1,0-0.2-0.1-0.2c0,0-0.1-0.1-0.2-0.1s-0.1,0-0.2,0.1C-210.1,444.4-210.1,444.4-210.1,444.5z"/>
			<path class="st39" d="M-208.5,445L-208.5,445c0,0-0.1,0-0.1,0.1c0,0-0.1,0-0.1,0.1h-0.1c-0.1,0-0.1,0-0.2,0
				c-0.1,0-0.1-0.1-0.1-0.1s-0.1-0.1-0.1-0.2s0-0.1,0-0.2c0-0.2,0-0.3,0.1-0.4c0.1-0.1,0.2-0.1,0.3-0.1c0.1,0,0.1,0,0.2,0
				c0.1,0,0.1,0.1,0.1,0.1v-0.4c0-0.1,0-0.1,0-0.1h0.1h0.1v0.1v1.1v0.1h-0.1h-0.1C-208.5,445.1-208.5,445-208.5,445z M-209,444.6
				c0,0.1,0,0.1,0,0.2l0.1,0.1h0.1h0.1l0.1-0.1c0,0,0-0.1,0-0.2s0-0.1,0-0.2l-0.1-0.1h-0.1h-0.1l-0.1,0.1
				C-209,444.5-209,444.5-209,444.6z"/>
			<path class="st39" d="M-207.3,443.8v0.4c0-0.1,0.1-0.1,0.1-0.1c0.1,0,0.1,0,0.2,0s0.2,0,0.2,0.1c0.1,0,0.1,0.1,0.1,0.2
				s0.1,0.2,0.1,0.3c0,0.1,0,0.1,0,0.2s0,0.1-0.1,0.2l-0.1,0.1c-0.1,0-0.1,0-0.2,0h-0.1h-0.1c0,0,0,0-0.1,0c0,0,0,0-0.1-0.1l0,0v0.1
				h-0.1h-0.1v-0.1V444c0-0.1,0-0.1,0-0.1h0.1h0.1C-207.3,443.8-207.3,443.8-207.3,443.8z M-207.3,444.6c0,0.1,0,0.2,0.1,0.2
				c0,0.1,0.1,0.1,0.2,0.1s0.1,0,0.2-0.1c0-0.1,0.1-0.1,0.1-0.2s0-0.1,0-0.2c0,0,0-0.1-0.1-0.1h-0.1h-0.1l-0.1,0.1
				C-207.3,444.5-207.3,444.5-207.3,444.6z"/>
			<path class="st39" d="M-206.1,445.2L-206.1,445.2l-0.3-0.9v-0.1c0,0,0,0,0-0.1l0,0c0,0,0,0,0.1,0h0.1v0.1l0.2,0.6l0.2-0.6v-0.1
				c0,0,0,0,0-0.1c0,0,0,0,0.1,0c0,0,0,0,0.1,0l0,0c0,0,0,0,0,0.1c0,0,0,0,0,0.1c0,0,0,0,0,0.1l-0.3,0.9c0,0.1-0.1,0.1-0.1,0.2
				l-0.1,0.1c0,0-0.1,0-0.2,0c-0.1,0-0.1,0-0.2,0c0,0-0.1,0-0.1-0.1v-0.1c0,0,0,0,0.1,0l0,0l0,0h0.1
				C-206.2,445.3-206.2,445.3-206.1,445.2L-206.1,445.2z"/>
		</g>
		<g>
			<path class="st39" d="M-201.3,444.1L-201.3,444.1L-201.3,444.1c0.1-0.2,0.1-0.2,0.1-0.3l0.1-0.1c0,0,0.1,0,0.2,0
				c0.1,0,0.2,0,0.2,0.1c0,0,0,0,0,0.1c0,0,0,0-0.1,0c0,0,0,0-0.1,0c0,0,0,0-0.1,0h-0.1v0.1v0.1h0.1c0.1,0,0.1,0,0.1,0.1v0.1h-0.1
				l0,0v0.7c0,0.1,0,0.1,0,0.1h-0.1h-0.1V445v-0.7h-0.1h-0.1c0,0,0,0,0-0.1C-201.5,444.1-201.4,444.1-201.3,444.1z"/>
			<path class="st39" d="M-200.4,444.7v0.3c0,0.1,0,0.1,0,0.1h-0.1h-0.1V445v-0.7c0-0.1,0-0.2,0.1-0.2h0.1v0.1
				c0-0.1,0.1-0.1,0.1-0.1h0.1c0.1,0,0.1,0,0.2,0c0.1,0,0.1,0.1,0.1,0.1v0.1c0,0,0,0-0.1,0c0,0,0,0-0.1,0h-0.1h-0.1c0,0,0,0-0.1,0.1
				v0.1C-200.4,444.6-200.4,444.7-200.4,444.7z"/>
			<path class="st39" d="M-199.2,444.7h-0.5c0,0.1,0,0.1,0,0.2l0.1,0.1h0.1h0.1c0,0,0,0,0.1,0c0,0,0,0,0.1,0c0,0,0,0,0.1-0.1
				c0,0,0,0,0.1,0c0,0,0,0,0.1,0c0,0,0,0,0,0.1v0.1c0,0,0,0.1-0.1,0.1l-0.1,0.1c-0.1,0-0.1,0-0.2,0c-0.2,0-0.3,0-0.4-0.1
				s-0.1-0.2-0.1-0.4c0-0.1,0-0.1,0-0.2c0-0.1,0.1-0.1,0.1-0.2c0,0,0.1-0.1,0.2-0.1c0.1,0,0.1,0,0.2,0c0.1,0,0.2,0,0.3,0.1
				c0.1,0,0.1,0.1,0.2,0.2c0,0.1,0.1,0.1,0.1,0.2s0,0.1-0.1,0.1C-199.1,444.6-199.1,444.7-199.2,444.7z M-199.7,444.5h0.5
				c0-0.1,0-0.2-0.1-0.2c0,0-0.1-0.1-0.2-0.1s-0.1,0-0.2,0.1C-199.6,444.4-199.7,444.4-199.7,444.5z"/>
			<path class="st39" d="M-198,444.7h-0.5c0,0.1,0,0.1,0,0.2l0.1,0.1h0.1h0.1h0.1c0,0,0,0,0.1,0c0,0,0,0,0.1-0.1c0,0,0,0,0.1,0
				c0,0,0,0,0.1,0c0,0,0,0,0,0.1v0.1c0,0,0,0.1-0.1,0.1l-0.1,0.1c-0.1,0-0.1,0-0.2,0c-0.2,0-0.3,0-0.4-0.1c-0.1-0.1-0.1-0.2-0.1-0.4
				c0-0.1,0-0.1,0-0.2c0-0.1,0.1-0.1,0.1-0.2c0,0,0.1-0.1,0.2-0.1c0.1,0,0.1,0,0.2,0c0.1,0,0.2,0,0.3,0.1c0.1,0,0.1,0.1,0.2,0.2
				c0,0.1,0.1,0.1,0.1,0.2s0,0.1-0.1,0.1C-197.9,444.6-198,444.7-198,444.7z M-198.5,444.5h0.5c0-0.1,0-0.2-0.1-0.2
				c0,0-0.1-0.1-0.2-0.1c-0.1,0-0.1,0-0.2,0.1C-198.5,444.4-198.5,444.4-198.5,444.5z"/>
			<path class="st39" d="M-197.4,444.2L-197.4,444.2c0,0,0.1-0.1,0.2-0.1c0.1,0,0.1,0,0.2,0s0.2,0,0.2,0.1c0.1,0,0.1,0.1,0.2,0.2
				c0,0.1,0.1,0.2,0.1,0.3c0,0.1,0,0.2,0,0.2c0,0.1-0.1,0.1-0.1,0.2l-0.1,0.1c-0.1,0-0.1,0-0.2,0s-0.1,0-0.2,0l-0.1-0.1v0.4
				c0,0.1,0,0.2-0.1,0.2h-0.1v-0.1v-1.1v-0.1h0.1h0.1C-197.4,444.1-197.4,444.2-197.4,444.2z M-196.9,444.6c0-0.1,0-0.1,0-0.2
				c0,0,0-0.1-0.1-0.1h-0.1c-0.1,0-0.1,0-0.2,0.1c0,0.1-0.1,0.1-0.1,0.2s0,0.2,0.1,0.2c0,0.1,0.1,0.1,0.2,0.1h0.1l0.1-0.1
				C-196.9,444.7-196.9,444.7-196.9,444.6z"/>
			<path class="st39" d="M-196.3,444C-196.3,444-196.4,443.9-196.3,444c-0.1-0.1-0.1-0.1-0.1-0.1v-0.1h0.1h0.1v0.1
				C-196.2,443.9-196.2,443.9-196.3,444C-196.2,443.9-196.3,444-196.3,444z M-196.2,444.2v0.8c0,0.1,0,0.1,0,0.1h-0.1h-0.1V445v-0.7
				c0-0.1,0-0.1,0-0.1h0.1H-196.2C-196.2,444.1-196.2,444.2-196.2,444.2z"/>
			<path class="st39" d="M-195.3,445l-0.2-0.4l-0.1,0.1v0.3v0.1h-0.1h-0.1V445v-1.1c0-0.1,0-0.1,0-0.1h0.1h0.1v0.1v0.6l0.3-0.3
				l0.1-0.1c0,0,0,0,0.1,0h0.1c0,0,0,0,0,0.1c0,0,0,0.1-0.1,0.2l-0.1,0.1l0.3,0.4v0.1l0,0v0.1h-0.1
				C-195.1,445.1-195.2,445.1-195.3,445C-195.2,445.1-195.2,445-195.3,445z"/>
			<path class="st39" d="M-194.6,445.1L-194.6,445.1l-0.1-0.1v-0.1h0.1h0.1v0.1C-194.5,445-194.5,445.1-194.6,445.1
				C-194.5,445.1-194.6,445.1-194.6,445.1z"/>
			<path class="st39" d="M-193.3,444.8v0.1c0,0,0,0.1-0.1,0.1l-0.1,0.1c-0.1,0-0.1,0-0.2,0c-0.2,0-0.3,0-0.4-0.1
				c-0.1-0.1-0.1-0.2-0.1-0.4c0-0.1,0-0.2,0.1-0.3c0-0.1,0.1-0.1,0.2-0.2c0.1,0,0.2-0.1,0.3-0.1c0.1,0,0.1,0,0.2,0
				c0.1,0,0.1,0,0.1,0.1l0.1,0.1v0.1v0.1h-0.1c0,0,0,0-0.1,0c0,0,0,0,0-0.1l-0.1-0.1h-0.1c-0.1,0-0.1,0-0.2,0.1
				c0,0.1-0.1,0.1-0.1,0.2v0.1c0,0,0,0.1,0.1,0.1c0,0,0,0.1,0.1,0.1h0.1c0.1,0,0.1,0,0.1,0l0.1-0.1c0,0,0-0.1,0.1-0.1c0,0,0,0,0.1,0
				C-193.3,444.7-193.3,444.7-193.3,444.8C-193.3,444.7-193.3,444.8-193.3,444.8z"/>
			<path class="st39" d="M-192.1,444.6c0,0.1,0,0.1,0,0.2c0,0.1-0.1,0.1-0.1,0.2c0,0-0.1,0.1-0.2,0.1s-0.1,0-0.2,0
				c-0.1,0-0.1,0-0.2,0c-0.1,0-0.1-0.1-0.2-0.1c0,0-0.1-0.1-0.1-0.2c0-0.1,0-0.1,0-0.2s0-0.1,0-0.2s0.1-0.1,0.1-0.2
				c0,0,0.1-0.1,0.2-0.1c0.1,0,0.1,0,0.2,0c0.1,0,0.1,0,0.2,0c0.1,0,0.1,0.1,0.2,0.1c0,0,0.1,0.1,0.1,0.2
				C-192.1,444.4-192.1,444.5-192.1,444.6z M-192.3,444.6c0-0.1,0-0.2-0.1-0.2c0-0.1-0.1-0.1-0.2-0.1h-0.1l-0.1,0.1
				c0,0.1,0,0.1,0,0.2s0,0.1,0,0.2c0,0.1,0,0.1,0.1,0.1h0.1c0.1,0,0.1,0,0.2-0.1C-192.4,444.8-192.3,444.7-192.3,444.6z"/>
			<path class="st39" d="M-191,444.6v0.4c0,0.1,0,0.1,0,0.1h-0.1h-0.1V445v-0.4c0-0.1,0-0.1,0-0.2v-0.1h-0.1c-0.1,0-0.1,0-0.2,0.1
				c0,0.1,0,0.1,0,0.2v0.4c0,0.1,0,0.1,0,0.1h-0.1h-0.1V445v-0.7v-0.1h0.1h0.1v0.1l0,0c0-0.1,0.1-0.1,0.1-0.1c0.1,0,0.1,0,0.2,0
				c0.1,0,0.1,0,0.2,0l0.1,0.1c0-0.1,0.1-0.1,0.1-0.1s0.1,0,0.2,0s0.1,0,0.2,0s0.1,0.1,0.1,0.1s0,0.1,0,0.2v0.5c0,0.1,0,0.1,0,0.1
				h-0.1h-0.1V445v-0.4c0-0.1,0-0.1,0-0.1v-0.1h-0.1h-0.1c0,0-0.1,0-0.1,0.1C-191,444.4-191,444.5-191,444.6z"/>
		</g>
		<g>
			<path class="st39" d="M-203.4,443.4L-203.4,443.4c0.1-0.1,0.1-0.2,0.1-0.2c0-0.1-0.2-0.1-0.2,0
				C-203.6,443.2-203.5,443.3-203.4,443.4L-203.4,443.4c-0.2,0-0.3,0-0.4,0.1v0.1c0.2-0.1,0.5-0.1,0.7-0.1v-0.1
				C-203.1,443.4-203.3,443.4-203.4,443.4z"/>
			<path class="st39" d="M-202.1,443.8L-202.1,443.8c-0.1,0.1-0.1,0.2-0.1,0.2s0,0-0.1,0l-0.1-0.1l0,0l-0.1-0.1l-0.1,0.1
				c0.1,0.1,0.1,0.2,0.2,0.3c0,0.1,0.1,0.2,0.1,0.2c0.1,0,0.1-0.1,0.2-0.1c0-0.1-0.1-0.2-0.1-0.2s0.1,0,0.1-0.1v-0.1
				c0.1,0,0.1,0,0.1-0.1C-201.9,443.8-202,443.7-202.1,443.8z"/>
			<path class="st39" d="M-202.4,444.2c-0.1-0.1-0.2-0.3-0.3-0.4c-0.1-0.1-0.3-0.2-0.5-0.2s-0.5,0-0.7,0.1c-0.2,0.1-0.4,0.3-0.5,0.5
				c-0.1,0.2-0.1,0.4,0,0.6c0.2,0.1,0.5,0.1,0.7,0.1s0.5,0,0.7,0c0.3,0,0.6-0.1,0.9-0.3C-202.2,444.7-202.3,444.5-202.4,444.2z
				 M-203.5,444.5c0,0.1-0.1,0.1-0.2,0.1c-0.1,0-0.3,0-0.4-0.1c-0.1-0.1-0.1-0.2-0.1-0.3c0-0.1,0.1-0.2,0.2-0.3c0.1,0,0.2-0.1,0.3,0
				h0.1c0.1,0,0.1,0.1,0.1,0.2C-203.5,444.3-203.5,444.4-203.5,444.5z M-202.6,444.3c0,0.1-0.1,0.2-0.2,0.2c-0.1,0-0.1,0-0.2-0.1
				l-0.1-0.1c0-0.1,0.1-0.2,0.2-0.2h0.1C-202.6,444.1-202.6,444.2-202.6,444.3z"/>
			<path class="st39" d="M-204.5,443.9c-0.1,0.1-0.2,0.1-0.2,0.2V444c0,0,0,0-0.1,0c0,0,0,0-0.1,0v-0.1h-0.1c0,0.1,0,0.1,0.1,0.1
				h0.1c0,0,0,0.1,0.1,0.1c0,0.1-0.1,0.2-0.1,0.3c0.1,0,0.1,0.1,0.2,0.1c0-0.1,0-0.1,0-0.2C-204.6,444.2-204.5,444.1-204.5,443.9
				C-204.4,444-204.4,443.9-204.5,443.9z"/>
			<path class="st39" d="M-203,445c-0.2,0.1-0.5,0.1-0.7,0.1s-0.3,0-0.5-0.1c-0.1,0-0.2-0.1-0.3-0.1c0,0.1,0.1,0.3,0.2,0.4
				c0.1,0.1,0.2,0.3,0.4,0.3c0.1,0,0.3,0.1,0.5,0.1c0.2,0,0.4,0,0.6-0.1c0.1-0.1,0.2-0.1,0.3-0.2c0.1-0.1,0.1-0.2,0.2-0.3
				c0-0.1,0.1-0.3,0.1-0.4C-202.5,444.9-202.7,445-203,445z"/>
		</g>
	</g>
</g>
</svg>
